<?xml version="1.0" encoding="UTF-8" standalone="no"?>
<!DOCTYPE svg PUBLIC "-//W3C//DTD SVG 1.1//EN"
 "http://www.w3.org/Graphics/SVG/1.1/DTD/svg11.dtd">
<!-- Generated by graphviz version 2.43.0 (0)
 -->
<!-- Title: %3 Pages: 1 -->
<svg width="737pt" height="548pt"
 viewBox="0.00 0.00 737.23 548.00" xmlns="http://www.w3.org/2000/svg" xmlns:xlink="http://www.w3.org/1999/xlink">
<g id="graph0" class="graph" transform="scale(1 1) rotate(0) translate(4 544)">
<title>%3</title>
<polygon fill="white" stroke="transparent" points="-4,4 -4,-544 733.23,-544 733.23,4 -4,4"/>
<!-- Enum -->
<g id="node1" class="node">
<title>Enum</title>
<ellipse fill="#dddddd" stroke="black" cx="119.25" cy="-234" rx="27" ry="18"/>
<text text-anchor="middle" x="119.25" y="-231.5" font-family="sans serif" font-size="10.00">Enum</text>
</g>
<!-- Integral -->
<g id="node6" class="node">
<title>Integral</title>
<ellipse fill="#f8ddbb" stroke="black" cx="201.25" cy="-162" rx="61.69" ry="18"/>
<text text-anchor="start" x="182.25" y="-163.5" font-family="sans serif" font-size="10.00">Integral</text>
<text text-anchor="start" x="164.75" y="-155.9" font-family="sans serif" font-size="7.00">quot, rem, quotRem</text>
</g>
<!-- Enum&#45;&gt;Integral -->
<g id="edge24" class="edge">
<title>Enum&#45;&gt;Integral</title>
<path fill="none" stroke="black" d="M135.45,-219.17C146.58,-209.67 161.62,-196.83 174.51,-185.83"/>
<polygon fill="black" stroke="black" points="176.87,-188.41 182.21,-179.26 172.33,-183.09 176.87,-188.41"/>
</g>
<!-- Eq -->
<g id="node2" class="node">
<title>Eq</title>
<ellipse fill="#dddddd" stroke="black" cx="47.25" cy="-522" rx="27" ry="18"/>
<text text-anchor="middle" x="47.25" y="-519.5" font-family="sans serif" font-size="10.00">Eq</text>
</g>
<!-- Ord -->
<g id="node9" class="node">
<title>Ord</title>
<ellipse fill="#dddddd" stroke="black" cx="47.25" cy="-450" rx="27" ry="18"/>
<text text-anchor="middle" x="47.25" y="-447.5" font-family="sans serif" font-size="10.00">Ord</text>
</g>
<!-- Eq&#45;&gt;Ord -->
<g id="edge2" class="edge">
<title>Eq&#45;&gt;Ord</title>
<path fill="none" stroke="black" d="M47.25,-503.7C47.25,-495.98 47.25,-486.71 47.25,-478.11"/>
<polygon fill="black" stroke="black" points="50.75,-478.1 47.25,-468.1 43.75,-478.1 50.75,-478.1"/>
</g>
<!-- RealFrac -->
<g id="node3" class="node">
<title>RealFrac</title>
<ellipse fill="#dddddd" stroke="black" cx="455.25" cy="-90" rx="34.96" ry="18"/>
<text text-anchor="middle" x="455.25" y="-87.5" font-family="sans serif" font-size="10.00">RealFrac</text>
</g>
<!-- RealFloat -->
<g id="node7" class="node">
<title>RealFloat</title>
<ellipse fill="#dddddd" stroke="black" cx="498.25" cy="-18" rx="37.17" ry="18"/>
<text text-anchor="middle" x="498.25" y="-15.5" font-family="sans serif" font-size="10.00">RealFloat</text>
</g>
<!-- RealFrac&#45;&gt;RealFloat -->
<g id="edge33" class="edge">
<title>RealFrac&#45;&gt;RealFloat</title>
<path fill="none" stroke="black" d="M465.44,-72.41C470.64,-63.95 477.06,-53.49 482.85,-44.08"/>
<polygon fill="black" stroke="black" points="485.88,-45.82 488.13,-35.47 479.92,-42.16 485.88,-45.82"/>
</g>
<!-- Fractional -->
<g id="node4" class="node">
<title>Fractional</title>
<ellipse fill="#f8ddbb" stroke="black" cx="541.25" cy="-162" rx="38.03" ry="18"/>
<text text-anchor="middle" x="541.25" y="-159.5" font-family="sans serif" font-size="10.00">Fractional</text>
</g>
<!-- Fractional&#45;&gt;RealFrac -->
<g id="edge31" class="edge">
<title>Fractional&#45;&gt;RealFrac</title>
<path fill="none" stroke="black" d="M523.01,-146.15C510.85,-136.25 494.67,-123.08 481.17,-112.09"/>
<polygon fill="black" stroke="black" points="483.13,-109.18 473.17,-105.58 478.72,-114.61 483.13,-109.18"/>
</g>
<!-- Floating -->
<g id="node10" class="node">
<title>Floating</title>
<ellipse fill="#dddddd" stroke="black" cx="541.25" cy="-90" rx="32.93" ry="18"/>
<text text-anchor="middle" x="541.25" y="-87.5" font-family="sans serif" font-size="10.00">Floating</text>
</g>
<!-- Fractional&#45;&gt;Floating -->
<g id="edge32" class="edge">
<title>Fractional&#45;&gt;Floating</title>
<path fill="none" stroke="black" d="M541.25,-143.7C541.25,-135.98 541.25,-126.71 541.25,-118.11"/>
<polygon fill="black" stroke="black" points="544.75,-118.1 541.25,-108.1 537.75,-118.1 544.75,-118.1"/>
</g>
<!-- Num -->
<g id="node5" class="node">
<title>Num</title>
<ellipse fill="#f8ddbb" stroke="black" cx="611.25" cy="-306" rx="41.89" ry="18"/>
<text text-anchor="start" x="599.25" y="-307.5" font-family="sans serif" font-size="10.00">Num</text>
<text text-anchor="start" x="589.25" y="-299.9" font-family="sans serif" font-size="7.00">abs, signum</text>
</g>
<!-- Num&#45;&gt;Fractional -->
<g id="edge27" class="edge">
<title>Num&#45;&gt;Fractional</title>
<path fill="none" stroke="black" d="M602.95,-288.15C590.84,-263.6 568.25,-217.77 554.02,-188.91"/>
<polygon fill="black" stroke="black" points="557.11,-187.25 549.55,-179.82 550.83,-190.34 557.11,-187.25"/>
</g>
<!-- Real -->
<g id="node8" class="node">
<title>Real</title>
<ellipse fill="#f8ddbb" stroke="black" cx="342.25" cy="-234" rx="27" ry="18"/>
<text text-anchor="middle" x="342.25" y="-231.5" font-family="sans serif" font-size="10.00">Real</text>
</g>
<!-- Num&#45;&gt;Real -->
<g id="edge22" class="edge">
<title>Num&#45;&gt;Real</title>
<path fill="none" stroke="black" d="M579.82,-294.07C573.38,-291.96 566.62,-289.83 560.25,-288 496.45,-269.65 420.97,-252.24 377.64,-242.65"/>
<polygon fill="black" stroke="black" points="378.13,-239.17 367.61,-240.44 376.62,-246.01 378.13,-239.17"/>
</g>
<!-- Real&#45;&gt;RealFrac -->
<g id="edge30" class="edge">
<title>Real&#45;&gt;RealFrac</title>
<path fill="none" stroke="black" d="M354.34,-217.8C373.93,-193.19 412.76,-144.4 436.12,-115.04"/>
<polygon fill="black" stroke="black" points="439.07,-116.96 442.56,-106.95 433.59,-112.6 439.07,-116.96"/>
</g>
<!-- Real&#45;&gt;Integral -->
<g id="edge25" class="edge">
<title>Real&#45;&gt;Integral</title>
<path fill="none" stroke="black" d="M321.14,-222.52C299.86,-211.96 266.52,-195.4 240.39,-182.43"/>
<polygon fill="black" stroke="black" points="241.64,-179.14 231.13,-177.83 238.53,-185.41 241.64,-179.14"/>
</g>
<!-- ToRational -->
<g id="node11" class="node">
<title>ToRational</title>
<ellipse fill="#ffcc66" stroke="black" cx="47.25" cy="-378" rx="47.01" ry="18"/>
<text text-anchor="start" x="21.25" y="-379.5" font-family="sans serif" font-size="10.00">ToRational</text>
<text text-anchor="start" x="28.25" y="-371.9" font-family="sans serif" font-size="7.00">toRational</text>
</g>
<!-- Ord&#45;&gt;ToRational -->
<g id="edge9" class="edge">
<title>Ord&#45;&gt;ToRational</title>
<path fill="none" stroke="black" d="M47.25,-431.7C47.25,-423.98 47.25,-414.71 47.25,-406.11"/>
<polygon fill="black" stroke="black" points="50.75,-406.1 47.25,-396.1 43.75,-406.1 50.75,-406.1"/>
</g>
<!-- Floating&#45;&gt;RealFloat -->
<g id="edge34" class="edge">
<title>Floating&#45;&gt;RealFloat</title>
<path fill="none" stroke="black" d="M531.28,-72.76C526.09,-64.32 519.63,-53.8 513.8,-44.31"/>
<polygon fill="black" stroke="black" points="516.69,-42.32 508.47,-35.63 510.72,-45.99 516.69,-42.32"/>
</g>
<!-- ToRational&#45;&gt;Enum -->
<!-- ToRational&#45;&gt;Real -->
<g id="edge23" class="edge">
<title>ToRational&#45;&gt;Real</title>
<path fill="none" stroke="black" d="M61.49,-360.72C79.84,-340.72 113.64,-307.12 149.25,-288 199.94,-260.78 265.81,-246.6 306,-239.98"/>
<polygon fill="black" stroke="black" points="306.56,-243.43 315.89,-238.42 305.47,-236.52 306.56,-243.43"/>
</g>
<!-- ToInteger -->
<g id="node18" class="node">
<title>ToInteger</title>
<ellipse fill="#ffcc66" stroke="black" cx="201.25" cy="-306" rx="43.17" ry="18"/>
<text text-anchor="start" x="178.25" y="-307.5" font-family="sans serif" font-size="10.00">ToInteger</text>
<text text-anchor="start" x="184.25" y="-299.9" font-family="sans serif" font-size="7.00">toInteger</text>
</g>
<!-- ToRational&#45;&gt;ToInteger -->
<g id="edge13" class="edge">
<title>ToRational&#45;&gt;ToInteger</title>
<path fill="none" stroke="black" d="M76.58,-363.67C101.3,-352.43 136.82,-336.29 163.63,-324.1"/>
<polygon fill="black" stroke="black" points="165.42,-327.13 173.07,-319.81 162.52,-320.76 165.42,-327.13"/>
</g>
<!-- AdditiveMonoid -->
<g id="node12" class="node">
<title>AdditiveMonoid</title>
<ellipse fill="#ffcc66" stroke="black" cx="498.25" cy="-522" rx="64.75" ry="18"/>
<text text-anchor="start" x="459.75" y="-523.5" font-family="sans serif" font-size="10.00">AdditiveMonoid</text>
<text text-anchor="start" x="467.25" y="-515.9" font-family="sans serif" font-size="7.00">(+), zero, atimes</text>
</g>
<!-- AbelianGroup -->
<g id="node13" class="node">
<title>AbelianGroup</title>
<ellipse fill="#ffcc66" stroke="black" cx="606.25" cy="-450" rx="58.24" ry="18"/>
<text text-anchor="start" x="572.75" y="-451.5" font-family="sans serif" font-size="10.00">AbelianGroup</text>
<text text-anchor="start" x="572.25" y="-443.9" font-family="sans serif" font-size="7.00">(&#45;), negate, gtimes</text>
</g>
<!-- AdditiveMonoid&#45;&gt;AbelianGroup -->
<g id="edge3" class="edge">
<title>AdditiveMonoid&#45;&gt;AbelianGroup</title>
<path fill="none" stroke="black" d="M522.49,-505.29C537.5,-495.56 556.96,-482.95 573.35,-472.32"/>
<polygon fill="black" stroke="black" points="575.61,-475.03 582.1,-466.66 571.8,-469.16 575.61,-475.03"/>
</g>
<!-- Semiring -->
<g id="node14" class="node">
<title>Semiring</title>
<ellipse fill="#ffcc66" stroke="black" cx="390.25" cy="-450" rx="85.44" ry="18"/>
<text text-anchor="start" x="368.25" y="-451.5" font-family="sans serif" font-size="10.00">Semiring</text>
<text text-anchor="start" x="336.75" y="-443.9" font-family="sans serif" font-size="7.00">(*), one, fromNatural, rescale</text>
</g>
<!-- AdditiveMonoid&#45;&gt;Semiring -->
<g id="edge4" class="edge">
<title>AdditiveMonoid&#45;&gt;Semiring</title>
<path fill="none" stroke="black" d="M474.01,-505.29C459.32,-495.77 440.35,-483.47 424.18,-472.99"/>
<polygon fill="black" stroke="black" points="425.83,-469.89 415.53,-467.39 422.02,-475.76 425.83,-469.89"/>
</g>
<!-- Ring -->
<g id="node15" class="node">
<title>Ring</title>
<ellipse fill="#ffcc66" stroke="black" cx="633.25" cy="-378" rx="41" ry="18"/>
<text text-anchor="start" x="622.25" y="-379.5" font-family="sans serif" font-size="10.00">Ring</text>
<text text-anchor="start" x="611.75" y="-371.9" font-family="sans serif" font-size="7.00">fromInteger</text>
</g>
<!-- AbelianGroup&#45;&gt;Ring -->
<g id="edge5" class="edge">
<title>AbelianGroup&#45;&gt;Ring</title>
<path fill="none" stroke="black" d="M612.79,-432.05C615.87,-424.06 619.62,-414.33 623.07,-405.4"/>
<polygon fill="black" stroke="black" points="626.44,-406.38 626.78,-395.79 619.91,-403.86 626.44,-406.38"/>
</g>
<!-- Semiring&#45;&gt;ToRational -->
<g id="edge10" class="edge">
<title>Semiring&#45;&gt;ToRational</title>
<path fill="none" stroke="black" d="M323.11,-438.79C264.66,-429.38 177.84,-414.15 103.25,-396 99.47,-395.08 95.57,-394.06 91.67,-392.98"/>
<polygon fill="black" stroke="black" points="92.61,-389.61 82.04,-390.22 90.69,-396.34 92.61,-389.61"/>
</g>
<!-- Semiring&#45;&gt;Ring -->
<g id="edge6" class="edge">
<title>Semiring&#45;&gt;Ring</title>
<path fill="none" stroke="black" d="M442.1,-435.66C481.1,-425.41 535.75,-410.58 583.25,-396 586.22,-395.09 589.29,-394.12 592.36,-393.12"/>
<polygon fill="black" stroke="black" points="593.74,-396.36 602.14,-389.9 591.55,-389.71 593.74,-396.36"/>
</g>
<!-- StandardAssociate -->
<g id="node16" class="node">
<title>StandardAssociate</title>
<ellipse fill="#ffcc66" stroke="black" cx="201.25" cy="-378" rx="88.89" ry="18"/>
<text text-anchor="start" x="155.75" y="-379.5" font-family="sans serif" font-size="10.00">StandardAssociate</text>
<text text-anchor="start" x="145.25" y="-371.9" font-family="sans serif" font-size="7.00">stdAssociate, stdUnit, stdRecip</text>
</g>
<!-- Semiring&#45;&gt;StandardAssociate -->
<g id="edge7" class="edge">
<title>Semiring&#45;&gt;StandardAssociate</title>
<path fill="none" stroke="black" d="M349.71,-433.98C321.03,-423.36 282.38,-409.05 251.71,-397.69"/>
<polygon fill="black" stroke="black" points="252.65,-394.3 242.06,-394.11 250.22,-400.87 252.65,-394.3"/>
</g>
<!-- Euclidean -->
<g id="node17" class="node">
<title>Euclidean</title>
<ellipse fill="#ffcc66" stroke="black" cx="363.25" cy="-378" rx="54.79" ry="18"/>
<text text-anchor="start" x="339.25" y="-379.5" font-family="sans serif" font-size="10.00">Euclidean</text>
<text text-anchor="start" x="331.75" y="-371.9" font-family="sans serif" font-size="7.00">div, mod, divMod</text>
</g>
<!-- Semiring&#45;&gt;Euclidean -->
<g id="edge8" class="edge">
<title>Semiring&#45;&gt;Euclidean</title>
<path fill="none" stroke="black" d="M383.58,-431.7C380.54,-423.81 376.87,-414.3 373.49,-405.55"/>
<polygon fill="black" stroke="black" points="376.71,-404.17 369.85,-396.1 370.18,-406.69 376.71,-404.17"/>
</g>
<!-- DivisionSemiring -->
<g id="node19" class="node">
<title>DivisionSemiring</title>
<ellipse fill="#ffcc66" stroke="black" cx="505.25" cy="-378" rx="69.48" ry="18"/>
<text text-anchor="start" x="463.25" y="-379.5" font-family="sans serif" font-size="10.00">DivisionSemiring</text>
<text text-anchor="start" x="495.75" y="-371.9" font-family="sans serif" font-size="7.00">recip</text>
</g>
<!-- Semiring&#45;&gt;DivisionSemiring -->
<g id="edge14" class="edge">
<title>Semiring&#45;&gt;DivisionSemiring</title>
<path fill="none" stroke="black" d="M416.92,-432.76C432.86,-423.07 453.28,-410.64 470.47,-400.17"/>
<polygon fill="black" stroke="black" points="472.4,-403.1 479.12,-394.91 468.76,-397.12 472.4,-403.1"/>
</g>
<!-- Ring&#45;&gt;Num -->
<g id="edge21" class="edge">
<title>Ring&#45;&gt;Num</title>
<path fill="none" stroke="black" d="M627.93,-360.05C625.48,-352.26 622.51,-342.82 619.76,-334.08"/>
<polygon fill="black" stroke="black" points="623.02,-332.77 616.68,-324.28 616.34,-334.86 623.02,-332.77"/>
</g>
<!-- DivisionRing -->
<g id="node20" class="node">
<title>DivisionRing</title>
<ellipse fill="#ffcc66" stroke="black" cx="505.25" cy="-306" rx="45.83" ry="18"/>
<text text-anchor="middle" x="505.25" y="-303.5" font-family="sans serif" font-size="10.00">DivisionRing</text>
</g>
<!-- Ring&#45;&gt;DivisionRing -->
<g id="edge15" class="edge">
<title>Ring&#45;&gt;DivisionRing</title>
<path fill="none" stroke="black" d="M608.57,-363.5C589.12,-352.87 561.76,-337.9 540.08,-326.05"/>
<polygon fill="black" stroke="black" points="541.63,-322.9 531.17,-321.18 538.27,-329.05 541.63,-322.9"/>
</g>
<!-- FromRational -->
<g id="node23" class="node">
<title>FromRational</title>
<ellipse fill="#ffcc66" stroke="black" cx="672.25" cy="-234" rx="56.96" ry="18"/>
<text text-anchor="start" x="639.25" y="-235.5" font-family="sans serif" font-size="10.00">FromRational</text>
<text text-anchor="start" x="648.75" y="-227.9" font-family="sans serif" font-size="7.00">fromRational</text>
</g>
<!-- Ring&#45;&gt;FromRational -->
<g id="edge20" class="edge">
<title>Ring&#45;&gt;FromRational</title>
<path fill="none" stroke="black" d="M644.42,-360.57C650.73,-350.46 658.14,-337 662.25,-324 668.61,-303.89 671.04,-280.11 671.92,-262.19"/>
<polygon fill="black" stroke="black" points="675.42,-262.25 672.28,-252.14 668.42,-262 675.42,-262.25"/>
</g>
<!-- StandardAssociate&#45;&gt;ToInteger -->
<g id="edge11" class="edge">
<title>StandardAssociate&#45;&gt;ToInteger</title>
<path fill="none" stroke="black" d="M201.25,-359.7C201.25,-351.98 201.25,-342.71 201.25,-334.11"/>
<polygon fill="black" stroke="black" points="204.75,-334.1 201.25,-324.1 197.75,-334.1 204.75,-334.1"/>
</g>
<!-- Euclidean&#45;&gt;ToInteger -->
<g id="edge12" class="edge">
<title>Euclidean&#45;&gt;ToInteger</title>
<path fill="none" stroke="black" d="M331.25,-363.17C304.93,-351.8 267.57,-335.66 239.65,-323.59"/>
<polygon fill="black" stroke="black" points="240.77,-320.26 230.2,-319.51 237.99,-326.69 240.77,-320.26"/>
</g>
<!-- ToInteger&#45;&gt;Integral -->
<g id="edge26" class="edge">
<title>ToInteger&#45;&gt;Integral</title>
<path fill="none" stroke="black" d="M201.25,-287.87C201.25,-263.67 201.25,-219.21 201.25,-190.39"/>
<polygon fill="black" stroke="black" points="204.75,-190.19 201.25,-180.19 197.75,-190.19 204.75,-190.19"/>
</g>
<!-- DivisionSemiring&#45;&gt;DivisionRing -->
<g id="edge16" class="edge">
<title>DivisionSemiring&#45;&gt;DivisionRing</title>
<path fill="none" stroke="black" d="M505.25,-359.7C505.25,-351.98 505.25,-342.71 505.25,-334.11"/>
<polygon fill="black" stroke="black" points="508.75,-334.1 505.25,-324.1 501.75,-334.1 508.75,-334.1"/>
</g>
<!-- Semifield -->
<g id="node21" class="node">
<title>Semifield</title>
<ellipse fill="#ffcc66" stroke="black" cx="397.25" cy="-306" rx="43.56" ry="18"/>
<text text-anchor="start" x="373.75" y="-307.5" font-family="sans serif" font-size="10.00">Semifield</text>
<text text-anchor="start" x="392.75" y="-299.9" font-family="sans serif" font-size="7.00">(/)</text>
</g>
<!-- DivisionSemiring&#45;&gt;Semifield -->
<g id="edge17" class="edge">
<title>DivisionSemiring&#45;&gt;Semifield</title>
<path fill="none" stroke="black" d="M480.75,-361.12C465.31,-351.11 445.23,-338.1 428.63,-327.34"/>
<polygon fill="black" stroke="black" points="430.12,-324.13 419.82,-321.63 426.31,-330 430.12,-324.13"/>
</g>
<!-- Field -->
<g id="node22" class="node">
<title>Field</title>
<ellipse fill="#ffcc66" stroke="black" cx="505.25" cy="-234" rx="27" ry="18"/>
<text text-anchor="middle" x="505.25" y="-231.5" font-family="sans serif" font-size="10.00">Field</text>
</g>
<!-- DivisionRing&#45;&gt;Field -->
<g id="edge18" class="edge">
<title>DivisionRing&#45;&gt;Field</title>
<path fill="none" stroke="black" d="M505.25,-287.7C505.25,-279.98 505.25,-270.71 505.25,-262.11"/>
<polygon fill="black" stroke="black" points="508.75,-262.1 505.25,-252.1 501.75,-262.1 508.75,-262.1"/>
</g>
<!-- Semifield&#45;&gt;Field -->
<g id="edge19" class="edge">
<title>Semifield&#45;&gt;Field</title>
<path fill="none" stroke="black" d="M419.63,-290.5C436.47,-279.58 459.63,-264.57 477.63,-252.91"/>
<polygon fill="black" stroke="black" points="480.01,-255.53 486.5,-247.15 476.21,-249.66 480.01,-255.53"/>
</g>
<!-- Field&#45;&gt;Fractional -->
<g id="edge29" class="edge">
<title>Field&#45;&gt;Fractional</title>
<path fill="none" stroke="black" d="M513.6,-216.76C517.9,-208.4 523.24,-198.02 528.08,-188.61"/>
<polygon fill="black" stroke="black" points="531.24,-190.13 532.7,-179.63 525.01,-186.93 531.24,-190.13"/>
</g>
<!-- FromRational&#45;&gt;Fractional -->
<g id="edge28" class="edge">
<title>FromRational&#45;&gt;Fractional</title>
<path fill="none" stroke="black" d="M644.47,-218.15C623.97,-207.2 595.98,-192.25 574.32,-180.67"/>
<polygon fill="black" stroke="black" points="575.94,-177.57 565.47,-175.94 572.64,-183.74 575.94,-177.57"/>
</g>
</g>
</svg>
